<?xml version="1.0" encoding="utf-8"?>
<!-- Generator: Adobe Illustrator 26.0.3, SVG Export Plug-In . SVG Version: 6.00 Build 0)  -->
<svg version="1.0" id="katman_1" xmlns="http://www.w3.org/2000/svg" xmlns:xlink="http://www.w3.org/1999/xlink" x="0px" y="0px"
	 viewBox="0 0 1500.4 1062.5" style="enable-background:new 0 0 1500.4 1062.5;" xml:space="preserve">
<style type="text/css">
	.st0{fill:#E71D1D;}
</style>
<g id="_x38_uCZi_x5F_iBBqQpxehSqw-l2" transform="matrix(7.35 0 0 7.35 640 144.55)">
	<g vector-effect="non-scaling-stroke">
		<g id="aKObLxOJ8mS_HtTKtmP7T" transform="matrix(0.11 0 0 0.11 -67.41 0)">
			<path class="st0" d="M-41.9,404.4C-41.9,335,1.3,300,81.2,300h233.4v148.4h-19.1c-8-86.2-46.5-121.6-124.7-121.6h-48.2
				c-37.5,0-55.7,18.7-55.7,55.6v191.7c0,36.9,18.2,55.6,55.7,55.6h48.2c77,0,116.2-37.5,124.6-126.4h19.1v153.2H81.2
				c-79.9,0-123.1-35-123.1-104.4L-41.9,404.4L-41.9,404.4"/>
		</g>
		<g id="CXh2UpZupKGzss73aPv7g" transform="matrix(0.11 0 0 0.11 -22.08 0)">
			<path class="st0" d="M314.6,300v356.5h-94.9L-13.6,372.7v127.8c0,94,37.7,128.9,122.8,138.1v17.9H-41.9V300H67.2l219,266.6V454.8
				c0-93.4-37.9-128.6-120.9-136.9V300L314.6,300L314.6,300"/>
		</g>
		<g id="fOVt0syp-Zoav_975alWT" transform="matrix(0.11 0 0 0.11 23.35 0)">
			<path class="st0" d="M-41.9,300h356.5v148.4h-19.1c-8.1-86.5-46.5-122-124.7-122H63.6v133.7h36.3c60.7,0,86.4-27.2,92.6-85.6
				h19.4v196h-19.4c-6.1-58.7-31.8-85.7-92.6-85.7H63.6v145.4h107.3c77,0,116.2-37.6,124.6-126.8h19.1v153.2H-41.9V300"/>
		</g>
		<g id="zIN3hcJM3j7X62Tl9s-Lt" transform="matrix(0.11 0 0 0.11 67.4 0)">
			<path class="st0" d="M314.6,300v148.4h-19.1c-8.2-81.6-42.3-119.5-106.4-126.4v250.7c0,43.6,15.4,61,71.6,64.7v19.2H11.9v-19.2
				c56.3-3.7,71.6-21.1,71.6-64.7V321.9c-64.1,6.9-98.2,44.8-106.4,126.4h-19.1V300H314.6"/>
		</g>
	</g>
</g>
</svg>
